<svg width="919" height="79" viewBox="0 0 919 79" fill="none" xmlns="http://www.w3.org/2000/svg">
<g clip-path="url(#clip0)">
<path d="M131.908 35.3H106.467V26.9H138.494V18.5H106.409C104.18 18.5 102.043 19.3789 100.468 20.9432C98.892 22.5076 98.0068 24.6293 98.0068 26.8417V35.3583C98.0068 37.5707 98.892 39.6924 100.468 41.2568C102.043 42.8211 104.18 43.7 106.409 43.7H131.849V52.1H98.612V60.5H131.908C134.136 60.5 136.273 59.6211 137.849 58.0568C139.425 56.4924 140.31 54.3707 140.31 52.1583V43.6417C140.31 41.4293 139.425 39.3076 137.849 37.7432C136.273 36.1789 134.136 35.3 131.908 35.3V35.3Z" fill="white"/>
<path d="M181.173 18.5H155.639C154.536 18.5 153.443 18.7158 152.424 19.1351C151.405 19.5544 150.479 20.1689 149.7 20.9436C148.92 21.7182 148.302 22.6379 147.88 23.6499C147.459 24.6619 147.242 25.7465 147.243 26.8417V52.1583C147.242 53.2535 147.459 54.3381 147.88 55.3501C148.302 56.3621 148.92 57.2818 149.7 58.0564C150.479 58.8311 151.405 59.4456 152.424 59.8649C153.443 60.2842 154.536 60.5 155.639 60.5H181.173C183.402 60.5 185.539 59.6211 187.114 58.0568C188.69 56.4924 189.575 54.3707 189.575 52.1583V26.8417C189.575 24.6293 188.69 22.5076 187.114 20.9432C185.539 19.3789 183.402 18.5 181.173 18.5V18.5ZM181.114 52.1H155.733V26.9H181.114V52.1Z" fill="white"/>
<path d="M270.539 18.5H245.639C243.41 18.5 241.273 19.3789 239.698 20.9432C238.122 22.5076 237.237 24.6293 237.237 26.8417V60.5H245.697V46.6983H270.48V60.5H278.941V26.8417C278.941 25.746 278.725 24.6609 278.303 23.6485C277.881 22.6361 277.262 21.7163 276.481 20.9415C275.701 20.1668 274.775 19.5523 273.755 19.1334C272.735 18.7145 271.642 18.4992 270.539 18.5V18.5ZM270.48 38.2983H245.697V26.9H270.48V38.2983Z" fill="white"/>
<path d="M369.598 18.5H344.704C343.599 18.4977 342.505 18.7118 341.483 19.1299C340.462 19.5481 339.534 20.1622 338.752 20.937C337.97 21.7118 337.349 22.6322 336.926 23.6454C336.503 24.6586 336.285 25.7448 336.285 26.8417V60.5H344.745V46.6983H369.54V60.5H378V26.8417C378 24.6293 377.115 22.5076 375.539 20.9432C373.964 19.3789 371.827 18.5 369.598 18.5V18.5ZM369.54 38.2983H344.763V26.9H369.54V38.2983Z" fill="white"/>
<path d="M320.309 52.1H316.925L304.798 22C304.383 20.9672 303.666 20.0817 302.739 19.4578C301.812 18.8339 300.718 18.5002 299.598 18.5H292.066C290.581 18.5 289.157 19.0857 288.107 20.1282C287.057 21.1708 286.467 22.5848 286.467 24.0592V60.5H294.927V26.9H298.312L310.433 57C310.846 58.0327 311.562 58.9185 312.488 59.5426C313.414 60.1666 314.507 60.5002 315.626 60.5H323.159C324.644 60.5 326.068 59.9143 327.118 58.8718C328.168 57.8292 328.758 56.4152 328.758 54.9408V18.5H320.297L320.309 52.1Z" fill="white"/>
<path d="M205.533 18.5H197.072V52.1583C197.072 54.3707 197.957 56.4924 199.533 58.0568C201.109 59.6211 203.246 60.5 205.474 60.5H230.915V52.1H205.533V18.5Z" fill="white"/>
<path fill-rule="evenodd" clip-rule="evenodd" d="M37.954 50.525C38.1042 50.3635 38.2857 50.2337 38.4876 50.1435C38.6896 50.0533 38.9077 50.0045 39.1291 50H76.0503C76.2065 50.0022 76.3587 50.0491 76.4887 50.1352C76.6187 50.2213 76.7209 50.3428 76.7829 50.4851C76.845 50.6275 76.8643 50.7846 76.8386 50.9376C76.8128 51.0906 76.7431 51.2329 76.6378 51.3475L68.8117 59.975C68.6615 60.1365 68.48 60.2663 68.2781 60.3565C68.0762 60.4467 67.858 60.4955 67.6367 60.5H30.692C30.5358 60.4978 30.3835 60.4509 30.2536 60.3648C30.1236 60.2787 30.0214 60.1572 29.9593 60.0149C29.8973 59.8725 29.878 59.7154 29.9037 59.5624C29.9294 59.4094 29.9992 59.2671 30.1045 59.1525L37.954 50.525ZM76.673 43.3733C76.7784 43.4879 76.8481 43.6303 76.8738 43.7833C76.8996 43.9363 76.8802 44.0934 76.8182 44.2357C76.7561 44.3781 76.6539 44.4996 76.524 44.5856C76.394 44.6717 76.2417 44.7186 76.0855 44.7208L39.1526 44.75C38.9312 44.7455 38.7131 44.6967 38.5111 44.6065C38.3092 44.5163 38.1277 44.3865 37.9775 44.225L30.0927 35.6267C29.9874 35.5121 29.9177 35.3697 29.8919 35.2167C29.8662 35.0637 29.8855 34.9066 29.9476 34.7643C30.0097 34.6219 30.1118 34.5004 30.2418 34.4144C30.3718 34.3283 30.524 34.2814 30.6802 34.2792L67.6132 34.25C67.8345 34.2545 68.0527 34.3033 68.2546 34.3935C68.4565 34.4837 68.638 34.6135 68.7882 34.775L76.673 43.3733ZM37.954 19.025C38.1042 18.8635 38.2857 18.7337 38.4876 18.6435C38.6896 18.5533 38.9077 18.5045 39.1291 18.5L76.0738 18.5292C76.23 18.5314 76.3822 18.5783 76.5122 18.6644C76.6422 18.7504 76.7443 18.8719 76.8064 19.0143C76.8685 19.1566 76.8878 19.3137 76.8621 19.4667C76.8363 19.6197 76.7666 19.7621 76.6613 19.8767L68.8117 28.475C68.6615 28.6365 68.48 28.7663 68.2781 28.8565C68.0762 28.9467 67.858 28.9955 67.6367 29H30.692C30.5358 28.9978 30.3835 28.9509 30.2536 28.8648C30.1236 28.7787 30.0214 28.6572 29.9593 28.5149C29.8973 28.3725 29.878 28.2154 29.9037 28.0624C29.9294 27.9094 29.9992 27.7671 30.1045 27.6525L37.954 19.025Z" fill="#14F195"/>
</g>
<path d="M419.863 50.528V40.9945H425.023C429.019 40.9945 432.575 39.5787 432.575 34.7647C432.575 29.9193 428.862 28.5034 425.023 28.5034H417V50.528H419.863ZM419.863 30.8947H424.992C428.358 30.8947 429.648 32.4049 429.648 34.7647C429.648 37.093 428.358 38.6033 424.992 38.6033H419.863V30.8947Z" fill="#B4B4B4"/>
<path d="M444.182 50.528V40.9001H449.09C452.362 40.9001 453.715 41.9699 453.715 45.4624V50.528H456.578V44.6758C456.578 41.7811 455.068 39.9877 452.991 39.6416C454.974 39.0438 457.05 37.0616 457.05 34.2927C457.05 30.58 454.376 28.5034 450.16 28.5034H441.318V50.528H444.182ZM444.182 30.8947H449.467C452.425 30.8947 454.124 32.1532 454.124 34.6389C454.124 37.1245 452.425 38.4774 449.467 38.4774H444.182V30.8947Z" fill="#B4B4B4"/>
<path d="M474.685 51C480.128 51 483.904 46.6265 483.904 39.5157C483.904 32.4049 480.16 28 474.685 28C469.21 28 465.435 32.4049 465.435 39.5157C465.435 46.6265 469.242 51 474.685 51ZM474.685 48.6088C470.909 48.6088 468.455 45.2107 468.455 39.5157C468.455 33.7893 470.941 30.4227 474.685 30.4227C478.398 30.4227 480.883 33.7893 480.883 39.5157C480.883 45.2107 478.429 48.6088 474.685 48.6088Z" fill="#B4B4B4"/>
<path d="M501.252 51C504.178 51 506.475 49.5527 507.514 47.4761V49.5527V50.528H509.905V39.0123H501.252V41.435H507.262V41.844C507.262 46.3119 504.934 48.6088 501.535 48.6088C497.256 48.6088 495.022 44.5185 495.022 39.6416C495.022 33.8208 497.508 30.4227 501.661 30.4227C504.336 30.4227 506.318 32.2476 506.758 34.8906H509.842C509.338 30.8317 506.224 28 501.693 28C496.155 28 492.002 32.1847 492.002 39.6416C492.002 46.0602 495.431 51 501.252 51Z" fill="#B4B4B4"/>
<path d="M522.226 50.528V40.9001H527.135C530.407 40.9001 531.76 41.9699 531.76 45.4624V50.528H534.623V44.6758C534.623 41.7811 533.113 39.9877 531.036 39.6416C533.018 39.0438 535.095 37.0616 535.095 34.2927C535.095 30.58 532.421 28.5034 528.205 28.5034H519.363V50.528H522.226ZM522.226 30.8947H527.512C530.47 30.8947 532.169 32.1532 532.169 34.6389C532.169 37.1245 530.47 38.4774 527.512 38.4774H522.226V30.8947Z" fill="#B4B4B4"/>
<path d="M561.823 50.528L553.863 28.5034H550.339L542.41 50.528H545.367L547.633 43.9836H556.474L558.739 50.528H561.823ZM551.345 33.2544C551.597 32.4993 551.817 31.8386 552.038 31.1149L552.761 33.2544L555.656 41.5923H548.451L551.345 33.2544Z" fill="#B4B4B4"/>
<path d="M572.498 50.528L572.435 34.2613C572.435 33.223 572.435 32.342 572.404 31.2722L578.004 47.8536H581.119L586.657 31.2408V34.3557L586.594 50.528H589.268V28.5034H585.115L580.427 42.2845L579.609 44.8016C579.326 43.9521 579.043 43.1341 578.791 42.2845L574.04 28.5034H569.824V50.528H572.498Z" fill="#B4B4B4"/>
<path d="M632.934 50.528V48.1053H620.852V28.5034H617.989V50.528H632.934Z" fill="#B4B4B4"/>
<path d="M650.107 28.5034H641.108V30.8947H644.16V48.1053H641.108V50.528H650.107V48.1053H647.023V30.8947H650.107V28.5034Z" fill="#B4B4B4"/>
<path d="M667.639 50.528C671.949 50.528 675.977 49.238 675.977 44.3297C675.977 41.5923 674.372 39.7045 671.761 38.8865C673.743 38.2572 675.442 36.4323 675.442 34.041C675.442 30.2339 672.579 28.5034 668.457 28.5034H660.339V50.528H667.639ZM663.234 30.8947H668.268C671.352 30.8947 672.516 32.3105 672.516 34.2613C672.516 36.4952 670.911 37.7852 668.048 37.7852H663.234V30.8947ZM663.234 40.2079H667.985C671.886 40.2079 673.051 41.907 673.051 44.1724C673.051 46.7839 671.54 48.1053 668.111 48.1053H663.234V40.2079Z" fill="#B4B4B4"/>
<path d="M688.015 50.528V40.9001H692.924C696.196 40.9001 697.549 41.9699 697.549 45.4624V50.528H700.412V44.6758C700.412 41.7811 698.902 39.9877 696.825 39.6416C698.807 39.0438 700.884 37.0616 700.884 34.2927C700.884 30.58 698.21 28.5034 693.993 28.5034H685.152V50.528H688.015ZM688.015 30.8947H693.301C696.259 30.8947 697.958 32.1532 697.958 34.6389C697.958 37.1245 696.259 38.4774 693.301 38.4774H688.015V30.8947Z" fill="#B4B4B4"/>
<path d="M727.612 50.528L719.651 28.5034H716.128L708.199 50.528H711.156L713.422 43.9836H722.263L724.528 50.528H727.612ZM717.134 33.2544C717.386 32.4993 717.606 31.8386 717.827 31.1149L718.55 33.2544L721.445 41.5923H714.24L717.134 33.2544Z" fill="#B4B4B4"/>
<path d="M738.57 50.528V40.9001H743.479C746.751 40.9001 748.104 41.9699 748.104 45.4624V50.528H750.967V44.6758C750.967 41.7811 749.457 39.9877 747.38 39.6416C749.362 39.0438 751.439 37.0616 751.439 34.2927C751.439 30.58 748.765 28.5034 744.548 28.5034H735.707V50.528H738.57ZM738.57 30.8947H743.856C746.814 30.8947 748.513 32.1532 748.513 34.6389C748.513 37.1245 746.814 38.4774 743.856 38.4774H738.57V30.8947Z" fill="#B4B4B4"/>
<path d="M769.015 50.528V41.026L776.377 28.5034H773.262L769.109 35.8345C768.606 36.7469 768.102 37.6594 767.567 38.5718L766.057 35.803L762.061 28.5034H758.883L766.12 41.026V50.528H769.015Z" fill="#B4B4B4"/>
<defs>
<clipPath id="clip0">
<rect width="349" height="42" fill="white" transform="translate(29 18.5)"/>
</clipPath>
</defs>
</svg>
