<svg width="4476" height="513" viewBox="0 0 4476 513" fill="none" xmlns="http://www.w3.org/2000/svg">
<path d="M2457 208.68H2499.28C2507.03 208.68 2512.91 209.94 2516.92 212.46C2520.93 214.98 2523.59 218.387 2524.9 222.68C2526.21 226.973 2526.86 232.527 2526.86 239.34C2526.86 245.873 2526.21 251.333 2524.9 255.72C2523.59 260.013 2520.89 263.467 2516.78 266.08C2512.77 268.693 2506.84 270 2499 270H2469.04V305H2457V208.68ZM2494.94 258.8C2501.01 258.8 2505.44 258.193 2508.24 256.98C2511.04 255.673 2512.86 253.713 2513.7 251.1C2514.54 248.487 2514.96 244.567 2514.96 239.34C2514.96 234.113 2514.54 230.193 2513.7 227.58C2512.95 224.967 2511.18 223.053 2508.38 221.84C2505.67 220.533 2501.29 219.88 2495.22 219.88H2469.04V258.8H2494.94ZM2638.47 305L2623.49 267.2H2621.11H2590.87V305H2578.83V208.68H2623.07C2630.72 208.68 2636.51 209.893 2640.43 212.32C2644.35 214.747 2646.91 218.013 2648.13 222.12C2649.34 226.227 2649.95 231.5 2649.95 237.94C2649.95 244.567 2648.97 250.353 2647.01 255.3C2645.05 260.153 2641.03 263.467 2634.97 265.24L2651.35 305H2638.47ZM2618.03 256C2624 256 2628.39 255.393 2631.19 254.18C2634.08 252.873 2635.9 251.007 2636.65 248.58C2637.49 246.153 2637.91 242.607 2637.91 237.94C2637.91 233.18 2637.53 229.587 2636.79 227.16C2636.04 224.733 2634.31 222.913 2631.61 221.7C2628.99 220.487 2624.79 219.88 2619.01 219.88H2590.87V256H2618.03ZM2741.02 306.12C2728.23 306.12 2719.18 304.86 2713.86 302.34C2708.54 299.82 2705.13 295.433 2703.64 289.18C2702.24 282.833 2701.54 272.053 2701.54 256.84C2701.54 241.627 2702.24 230.893 2703.64 224.64C2705.13 218.293 2708.54 213.86 2713.86 211.34C2719.18 208.82 2728.23 207.56 2741.02 207.56C2753.71 207.56 2762.72 208.82 2768.04 211.34C2773.45 213.86 2776.86 218.293 2778.26 224.64C2779.75 230.893 2780.5 241.627 2780.5 256.84C2780.5 272.053 2779.75 282.833 2778.26 289.18C2776.86 295.433 2773.45 299.82 2768.04 302.34C2762.72 304.86 2753.71 306.12 2741.02 306.12ZM2741.02 294.92C2750.54 294.92 2756.98 294.313 2760.34 293.1C2763.7 291.887 2765.89 288.853 2766.92 284C2767.94 279.147 2768.46 270.093 2768.46 256.84C2768.46 243.587 2767.94 234.533 2766.92 229.68C2765.89 224.827 2763.7 221.793 2760.34 220.58C2756.98 219.367 2750.54 218.76 2741.02 218.76C2731.5 218.76 2725.01 219.367 2721.56 220.58C2718.2 221.793 2716 224.827 2714.98 229.68C2713.95 234.533 2713.44 243.587 2713.44 256.84C2713.44 270.093 2713.95 279.147 2714.98 284C2716 288.853 2718.2 291.887 2721.56 293.1C2725.01 294.313 2731.5 294.92 2741.02 294.92ZM2870.75 263.84V252.78H2904.07V303.32C2899.49 304.16 2894.31 304.813 2888.53 305.28C2882.83 305.84 2877.79 306.12 2873.41 306.12C2861.65 306.12 2852.92 304.86 2847.23 302.34C2841.63 299.727 2837.75 295.06 2835.61 288.34C2833.55 281.527 2832.53 271.027 2832.53 256.84C2832.53 242.747 2833.6 232.293 2835.75 225.48C2837.89 218.667 2841.77 214 2847.37 211.48C2853.06 208.867 2861.74 207.56 2873.41 207.56C2877.98 207.56 2883.07 207.84 2888.67 208.4C2894.36 208.96 2899.35 209.613 2903.65 210.36V221C2893.01 219.507 2884.89 218.76 2879.29 218.76C2868.18 218.76 2860.43 219.367 2856.05 220.58C2851.75 221.793 2848.72 224.967 2846.95 230.1C2845.27 235.233 2844.43 244.147 2844.43 256.84C2844.43 268.6 2845.08 277.047 2846.39 282.18C2847.69 287.313 2850.31 290.767 2854.23 292.54C2858.15 294.313 2864.59 295.2 2873.55 295.2C2876.35 295.2 2879.61 295.107 2883.35 294.92C2887.08 294.64 2890.11 294.36 2892.45 294.08V263.84H2870.75ZM3020.63 305L3005.65 267.2H3003.27H2973.03V305H2960.99V208.68H3005.23C3012.88 208.68 3018.67 209.893 3022.59 212.32C3026.51 214.747 3029.08 218.013 3030.29 222.12C3031.5 226.227 3032.11 231.5 3032.11 237.94C3032.11 244.567 3031.13 250.353 3029.17 255.3C3027.21 260.153 3023.2 263.467 3017.13 265.24L3033.51 305H3020.63ZM3000.19 256C3006.16 256 3010.55 255.393 3013.35 254.18C3016.24 252.873 3018.06 251.007 3018.81 248.58C3019.65 246.153 3020.07 242.607 3020.07 237.94C3020.07 233.18 3019.7 229.587 3018.95 227.16C3018.2 224.733 3016.48 222.913 3013.77 221.7C3011.16 220.487 3006.96 219.88 3001.17 219.88H2973.03V256H3000.19ZM3152.3 305L3142.36 279.38H3098.96L3089.02 305H3076.84L3113.24 208.68H3128.36L3164.76 305H3152.3ZM3120.94 221.7H3120.24L3102.6 268.04H3138.58L3120.94 221.7ZM3300.34 305V229.26H3299.78L3266.74 305H3257.92L3225.02 229.26H3224.46V305H3213.12V208.68H3229.36L3262.26 283.58H3262.96L3295.86 208.68H3312.1V305H3300.34ZM3434.08 305V208.68H3446.12V293.38H3491.06V305H3434.08ZM3539.92 305V208.68H3551.96V305H3539.92ZM3610.48 208.68H3655.28C3664.42 208.68 3670.96 210.733 3674.88 214.84C3678.89 218.947 3680.9 224.967 3680.9 232.9C3680.9 239.34 3679.59 244.473 3676.98 248.3C3674.36 252.033 3670.16 254.46 3664.38 255.58V256.14C3671 257.353 3675.58 259.92 3678.1 263.84C3680.62 267.76 3681.88 273.033 3681.88 279.66C3681.88 287.5 3679.92 293.707 3676 298.28C3672.17 302.76 3665.12 305 3654.86 305H3610.48V208.68ZM3651.36 250.68C3657.33 250.68 3661.72 249.42 3664.52 246.9C3667.41 244.38 3668.86 240.507 3668.86 235.28C3668.86 231.36 3668.34 228.327 3667.32 226.18C3666.29 224.033 3664.52 222.447 3662 221.42C3659.57 220.393 3656.02 219.88 3651.36 219.88H3622.52V250.68H3651.36ZM3651.92 293.8C3656.58 293.8 3660.18 293.287 3662.7 292.26C3665.31 291.233 3667.13 289.6 3668.16 287.36C3669.28 285.027 3669.84 281.853 3669.84 277.84C3669.84 272.053 3668.48 267.947 3665.78 265.52C3663.07 263.093 3658.45 261.88 3651.92 261.88H3622.52V293.8H3651.92ZM3796.05 305L3781.07 267.2H3778.69H3748.45V305H3736.41V208.68H3780.65C3788.3 208.68 3794.09 209.893 3798.01 212.32C3801.93 214.747 3804.49 218.013 3805.71 222.12C3806.92 226.227 3807.53 231.5 3807.53 237.94C3807.53 244.567 3806.55 250.353 3804.59 255.3C3802.63 260.153 3798.61 263.467 3792.55 265.24L3808.93 305H3796.05ZM3775.61 256C3781.58 256 3785.97 255.393 3788.77 254.18C3791.66 252.873 3793.48 251.007 3794.23 248.58C3795.07 246.153 3795.49 242.607 3795.49 237.94C3795.49 233.18 3795.11 229.587 3794.37 227.16C3793.62 224.733 3791.89 222.913 3789.19 221.7C3786.57 220.487 3782.37 219.88 3776.59 219.88H3748.45V256H3775.61ZM3927.71 305L3917.77 279.38H3874.37L3864.43 305H3852.25L3888.65 208.68H3903.77L3940.17 305H3927.71ZM3896.35 221.7H3895.65L3878.01 268.04H3913.99L3896.35 221.7ZM4048.18 305L4033.2 267.2H4030.82H4000.58V305H3988.54V208.68H4032.78C4040.43 208.68 4046.22 209.893 4050.14 212.32C4054.06 214.747 4056.62 218.013 4057.84 222.12C4059.05 226.227 4059.66 231.5 4059.66 237.94C4059.66 244.567 4058.68 250.353 4056.72 255.3C4054.76 260.153 4050.74 263.467 4044.68 265.24L4061.06 305H4048.18ZM4027.74 256C4033.71 256 4038.1 255.393 4040.9 254.18C4043.79 252.873 4045.61 251.007 4046.36 248.58C4047.2 246.153 4047.62 242.607 4047.62 237.94C4047.62 233.18 4047.24 229.587 4046.5 227.16C4045.75 224.733 4044.02 222.913 4041.32 221.7C4038.7 220.487 4034.5 219.88 4028.72 219.88H4000.58V256H4027.74ZM4134.68 305V268.6L4099.82 208.68H4112.7L4140.56 255.58H4141.54L4169.26 208.68H4181.86L4146.72 268.6V305H4134.68Z" fill="#767676"/>
<path d="M162.805 365.174C165.998 361.984 170.327 360.192 174.84 360.192H591.301C598.887 360.192 602.685 369.366 597.318 374.728L515.027 456.954C511.834 460.145 507.505 461.937 502.991 461.937H86.5309C78.9443 461.937 75.1464 452.763 80.5131 447.4L162.805 365.174Z" fill="#00FFA3"/>
<path d="M162.805 57.9825C165.998 54.7921 170.327 53 174.84 53H591.301C598.887 53 602.685 62.1739 597.318 67.5363L515.027 149.763C511.834 152.953 507.505 154.745 502.991 154.745H86.5309C78.9443 154.745 75.1464 145.571 80.5131 140.209L162.805 57.9825Z" fill="#00FFA3"/>
<path d="M515.027 210.6C511.834 207.41 507.505 205.618 502.991 205.618H86.5309C78.9443 205.618 75.1464 214.791 80.5131 220.154L162.805 302.38C165.998 305.57 170.327 307.363 174.84 307.363H591.301C598.887 307.363 602.685 298.189 597.318 292.826L515.027 210.6Z" fill="#00FFA3"/>
<path d="M820.024 276.968H902.478C914.06 276.968 923.449 286.428 923.449 298.097C923.449 309.766 914.06 319.225 902.478 319.225H803.025C801.472 319.225 799.971 319.784 798.791 320.801L768.763 346.684C764.166 350.646 766.947 358.232 772.997 358.232H897.497C897.548 358.232 897.59 358.19 897.59 358.138C897.59 358.084 897.636 358.041 897.69 358.045C899.257 358.169 900.84 358.232 902.438 358.232C935.464 358.232 962.237 331.308 962.237 298.097C962.237 266.558 938.094 240.691 907.38 238.164C907.328 238.16 907.287 238.116 907.287 238.063C907.287 238.007 907.242 237.962 907.186 237.962H818.358C806.776 237.962 797.387 228.502 797.387 216.833C797.387 205.164 806.776 195.705 818.358 195.705H917.673C919.309 195.705 920.884 195.085 922.086 193.969L949.97 168.085C954.332 164.036 951.488 156.698 945.557 156.698H820.024C820.018 156.698 820.013 156.703 820.013 156.709C820.013 156.715 820.008 156.72 820.002 156.719C819.469 156.705 818.934 156.698 818.397 156.698C785.371 156.698 758.599 183.622 758.599 216.833C758.599 250.045 785.371 276.968 818.397 276.968C818.934 276.968 819.469 276.961 820.002 276.947C820.008 276.947 820.013 276.952 820.013 276.958C820.013 276.963 820.018 276.968 820.024 276.968Z" fill="white"/>
<path d="M1300.26 156.698C1296.66 156.698 1293.74 159.636 1293.74 163.26V351.67C1293.74 355.294 1296.66 358.232 1300.26 358.232H1451.25C1453.05 358.232 1454.77 357.481 1456.01 356.158L1474.91 335.893C1478.81 331.702 1475.86 324.843 1470.15 324.843H1338.32C1334.71 324.843 1331.79 321.905 1331.79 318.282V163.26C1331.79 159.636 1328.87 156.698 1325.27 156.698H1300.26Z" fill="white"/>
<path fill-rule="evenodd" clip-rule="evenodd" d="M1058.44 156.698C1058.43 156.698 1058.42 156.706 1058.42 156.716C1058.42 156.725 1058.42 156.733 1058.41 156.734C1039.11 157.57 1023.61 173.099 1022.78 192.437C1022.78 192.447 1022.77 192.454 1022.76 192.454C1022.76 192.454 1022.75 192.457 1022.75 192.46C1022.75 192.463 1022.74 192.467 1022.74 192.472V319.208C1022.74 319.218 1022.75 319.225 1022.76 319.225C1022.77 319.225 1022.78 319.233 1022.78 319.243C1022.76 319.776 1022.74 320.312 1022.74 320.85C1022.74 340.945 1038.57 357.337 1058.41 358.196C1058.42 358.197 1058.42 358.204 1058.42 358.214L1058.43 358.222L1058.43 358.228C1058.43 358.23 1058.44 358.232 1058.44 358.232H1195.44C1195.45 358.232 1195.46 358.224 1195.46 358.214L1195.46 358.204L1195.47 358.198L1195.48 358.196C1215.32 357.337 1231.14 340.945 1231.14 320.85C1231.14 320.312 1231.13 319.776 1231.1 319.243C1231.1 319.233 1231.11 319.225 1231.12 319.225C1231.13 319.225 1231.14 319.218 1231.14 319.208V192.472C1231.14 192.462 1231.13 192.454 1231.12 192.454C1231.11 192.454 1231.1 192.447 1231.1 192.437C1230.27 173.099 1214.77 157.57 1195.48 156.734C1195.47 156.733 1195.46 156.725 1195.46 156.716C1195.46 156.706 1195.45 156.698 1195.44 156.698H1058.44ZM1083.98 192.454L1083.97 192.459L1083.97 192.465C1083.97 192.471 1083.96 192.476 1083.96 192.476C1071.9 193.002 1062.21 202.771 1061.69 214.935C1061.69 214.941 1061.69 214.946 1061.68 214.946C1061.67 214.946 1061.67 214.951 1061.67 214.957V294.678C1061.67 294.684 1061.67 294.689 1061.68 294.689C1061.68 294.689 1061.69 294.694 1061.69 294.7C1061.68 295.035 1061.67 295.372 1061.67 295.711C1061.67 308.351 1071.56 318.662 1083.96 319.203C1083.96 319.203 1083.97 319.208 1083.97 319.214L1083.97 319.22L1083.97 319.224L1083.98 319.225H1169.9L1169.91 319.224L1169.91 319.22L1169.92 319.214C1169.92 319.208 1169.92 319.203 1169.93 319.203C1182.33 318.662 1192.22 308.351 1192.22 295.711C1192.22 295.372 1192.21 295.035 1192.19 294.7L1192.19 294.697L1192.2 294.694L1192.2 294.689C1192.21 294.689 1192.22 294.684 1192.22 294.678V214.957C1192.22 214.951 1192.21 214.946 1192.2 214.946C1192.2 214.946 1192.19 214.941 1192.19 214.935C1191.67 202.771 1181.99 193.002 1169.93 192.476C1169.92 192.476 1169.92 192.471 1169.92 192.465L1169.91 192.46L1169.91 192.456L1169.9 192.454H1083.98Z" fill="white"/>
<path fill-rule="evenodd" clip-rule="evenodd" d="M1694.45 351.67C1694.45 355.294 1697.35 358.232 1700.93 358.232H1726.53C1730.11 358.232 1733.01 355.294 1733.01 351.67V195.722C1733.01 195.712 1733 195.705 1732.99 195.705L1732.98 195.703L1732.98 195.7C1732.98 195.697 1732.97 195.692 1732.97 195.687C1733 195.154 1733.01 194.618 1733.01 194.079C1733.01 173.985 1717.34 157.593 1697.68 156.734C1697.67 156.733 1697.67 156.725 1697.67 156.716C1697.67 156.706 1697.66 156.698 1697.65 156.698H1566.13C1566.12 156.698 1566.11 156.706 1566.11 156.715C1566.11 156.725 1566.1 156.733 1566.09 156.732C1565.56 156.71 1565.03 156.698 1564.5 156.698C1544.1 156.698 1527.56 173.434 1527.56 194.079C1527.56 194.618 1527.57 195.154 1527.59 195.687C1527.59 195.697 1527.58 195.705 1527.57 195.705C1527.56 195.705 1527.56 195.712 1527.56 195.722V351.67C1527.56 355.294 1530.45 358.232 1534.03 358.232H1559.64C1563.21 358.232 1566.11 355.294 1566.11 351.67V286.78C1566.11 283.156 1569.01 280.219 1572.58 280.219H1687.98C1691.56 280.219 1694.45 283.156 1694.45 286.78V351.67ZM1566.11 244.402V211.957C1566.11 199.391 1576.18 189.204 1588.6 189.204H1671.97C1684.39 189.204 1694.45 199.391 1694.45 211.957V244.402C1694.45 248.026 1691.56 250.964 1687.98 250.964H1572.58C1569.01 250.964 1566.11 248.026 1566.11 244.402Z" fill="white"/>
<path fill-rule="evenodd" clip-rule="evenodd" d="M2234.96 358.232C2231.36 358.232 2228.43 355.294 2228.43 351.67V286.78C2228.43 283.156 2225.5 280.219 2221.89 280.219H2105.22C2101.61 280.219 2098.68 283.156 2098.68 286.78V351.67C2098.68 355.294 2095.76 358.232 2092.15 358.232H2066.3C2062.69 358.232 2059.76 355.294 2059.76 351.67V195.722L2059.76 195.717L2059.76 195.712C2059.77 195.707 2059.77 195.705 2059.78 195.705C2059.79 195.705 2059.8 195.697 2059.79 195.687C2059.77 195.154 2059.76 194.618 2059.76 194.079C2059.76 173.434 2076.46 156.698 2097.06 156.698C2097.6 156.698 2098.13 156.71 2098.67 156.732C2098.68 156.733 2098.68 156.725 2098.68 156.715C2098.68 156.706 2098.69 156.698 2098.7 156.698L2231.66 156.698C2231.67 156.698 2231.67 156.706 2231.67 156.716C2231.67 156.725 2231.68 156.733 2231.69 156.734C2251.53 157.593 2267.35 173.985 2267.35 194.079C2267.35 194.618 2267.34 195.154 2267.32 195.687C2267.32 195.697 2267.33 195.705 2267.34 195.705C2267.34 195.705 2267.35 195.707 2267.35 195.71C2267.35 195.713 2267.35 195.717 2267.35 195.722V351.67C2267.35 355.294 2264.43 358.232 2260.82 358.232H2234.96ZM2098.68 211.957V244.402C2098.68 248.026 2101.61 250.964 2105.22 250.964H2221.89C2225.5 250.964 2228.43 248.026 2228.43 244.402V211.957C2228.43 199.391 2218.26 189.204 2205.72 189.204H2121.39C2108.85 189.204 2098.68 199.391 2098.68 211.957Z" fill="white"/>
<path d="M1829.39 156.698C1831.28 156.698 1833.08 157.54 1834.31 159.002L1949.15 295.901C1953.06 300.542 1960.55 297.743 1960.55 291.643V163.26C1960.55 159.636 1963.45 156.698 1967.03 156.698H1992.63C1996.21 156.698 1999.11 159.636 1999.11 163.26V351.67C1999.11 355.294 1996.21 358.232 1992.63 358.232H1960.79C1960.66 358.232 1960.55 358.122 1960.55 357.987C1960.55 357.927 1960.53 357.87 1960.49 357.825L1843.72 221.882C1839.79 217.316 1832.38 220.136 1832.38 226.198V351.67C1832.38 355.294 1829.48 358.232 1825.9 358.232H1800.13C1796.56 358.232 1793.66 355.294 1793.66 351.67V163.26C1793.66 159.636 1796.56 156.698 1800.13 156.698H1829.39Z" fill="white"/>
</svg>
