<svg width="4476" height="513" viewBox="0 0 4476 513" fill="none" xmlns="http://www.w3.org/2000/svg">
<g clip-path="url(#clip0)">
<path fill-rule="evenodd" clip-rule="evenodd" d="M1173.3 167.438C1173.3 163.882 1176.18 161 1179.74 161H1204.4C1207.96 161 1210.84 163.882 1210.84 167.438V319.535C1210.84 323.091 1213.72 325.973 1217.28 325.973H1362.93C1368.57 325.973 1371.49 332.703 1367.63 336.814L1348.99 356.697C1347.77 357.995 1346.07 358.732 1344.29 358.732H1210.84H1179.74C1176.18 358.732 1173.3 355.85 1173.3 352.294V167.438Z" fill="#232323"/>
<path fill-rule="evenodd" clip-rule="evenodd" d="M786.226 279.001H704.72C704.714 279.001 704.709 278.997 704.709 278.991C704.709 278.985 704.704 278.98 704.699 278.98C704.171 278.994 703.642 279.001 703.112 279.001C670.465 279.001 644 252.586 644 220.001C644 187.415 670.465 161 703.112 161C703.642 161 704.171 161.007 704.699 161.021C704.704 161.021 704.709 161.016 704.709 161.01C704.709 161.005 704.714 161 704.72 161H828.811C834.674 161 837.485 168.199 833.173 172.172L805.61 197.567C804.421 198.663 802.864 199.271 801.248 199.271H703.073C691.624 199.271 682.343 208.552 682.343 220.001C682.343 231.449 691.624 240.731 703.073 240.731H790.881C790.936 240.731 790.98 240.775 790.98 240.83C790.98 240.882 791.02 240.925 791.072 240.929C821.433 243.408 845.299 268.788 845.299 299.731C845.299 332.316 818.834 358.732 786.187 358.732C784.608 358.732 783.042 358.67 781.494 358.549C781.44 358.544 781.395 358.587 781.395 358.64C781.395 358.691 781.353 358.732 781.303 358.732H658.233C652.253 358.732 649.504 351.29 654.048 347.402L683.731 322.007C684.897 321.009 686.381 320.461 687.916 320.461H730.827H786.226C797.675 320.461 806.956 311.18 806.956 299.731C806.956 288.282 797.675 279.001 786.226 279.001Z" fill="#232323"/>
<path fill-rule="evenodd" clip-rule="evenodd" d="M942.245 161C942.235 161 942.228 161.008 942.228 161.017C942.228 161.027 942.22 161.034 942.211 161.035C923.201 161.855 907.937 177.091 907.115 196.065C907.115 196.074 907.107 196.081 907.097 196.081C907.088 196.081 907.08 196.089 907.08 196.099V320.444C907.08 320.454 907.088 320.461 907.097 320.461C907.106 320.461 907.114 320.469 907.113 320.479C907.091 321.002 907.08 321.527 907.08 322.056C907.08 341.771 922.666 357.854 942.211 358.697C942.22 358.697 942.228 358.705 942.228 358.714C942.228 358.724 942.235 358.732 942.245 358.732H1076.41C1076.42 358.732 1076.43 358.724 1076.43 358.714C1076.43 358.705 1076.43 358.697 1076.44 358.697C1095.99 357.854 1111.57 341.771 1111.57 322.056C1111.57 321.527 1111.56 321.002 1111.54 320.479C1111.54 320.469 1111.55 320.461 1111.56 320.461C1111.57 320.461 1111.57 320.454 1111.57 320.444V196.099C1111.57 196.089 1111.57 196.081 1111.56 196.081C1111.55 196.081 1111.54 196.074 1111.54 196.065C1110.72 177.091 1095.45 161.855 1076.44 161.035C1076.43 161.034 1076.43 161.027 1076.43 161.017C1076.43 161.008 1076.42 161 1076.41 161H942.245ZM967.401 196.081C967.395 196.081 967.39 196.086 967.39 196.092C967.39 196.098 967.385 196.103 967.38 196.103C955.499 196.619 945.958 206.203 945.445 218.138C945.444 218.144 945.44 218.149 945.434 218.149C945.428 218.149 945.423 218.154 945.423 218.16V296.377C945.423 296.383 945.428 296.388 945.433 296.388C945.439 296.388 945.444 296.393 945.444 296.399C945.43 296.728 945.423 297.058 945.423 297.391C945.423 309.793 955.164 319.909 967.38 320.439C967.385 320.44 967.39 320.444 967.39 320.45C967.39 320.456 967.395 320.461 967.401 320.461H1051.25C1051.26 320.461 1051.26 320.456 1051.26 320.45C1051.26 320.444 1051.27 320.44 1051.28 320.439C1063.49 319.909 1073.23 309.793 1073.23 297.391C1073.23 297.058 1073.22 296.728 1073.21 296.399C1073.21 296.393 1073.22 296.388 1073.22 296.388C1073.23 296.388 1073.23 296.383 1073.23 296.377V218.16C1073.23 218.154 1073.23 218.149 1073.22 218.149C1073.22 218.149 1073.21 218.144 1073.21 218.138C1072.7 206.203 1063.16 196.619 1051.28 196.103C1051.27 196.103 1051.26 196.098 1051.26 196.092C1051.26 196.086 1051.26 196.081 1051.25 196.081H967.401Z" fill="#232323"/>
<path fill-rule="evenodd" clip-rule="evenodd" d="M1477.43 215.217V247.05C1477.43 250.605 1480.32 253.487 1483.87 253.487H1598.8C1602.36 253.487 1605.24 250.605 1605.24 247.05V215.217C1605.24 202.887 1595.23 192.892 1582.88 192.892H1499.8C1487.45 192.892 1477.43 202.887 1477.43 215.217ZM1611.68 358.732C1608.12 358.732 1605.24 355.85 1605.24 352.294V288.628C1605.24 285.073 1602.36 282.19 1598.8 282.19H1483.87C1480.31 282.19 1477.43 285.073 1477.43 288.628V352.294C1477.43 355.85 1474.55 358.732 1470.99 358.732H1445.53C1441.97 358.732 1439.09 355.85 1439.09 352.294V199.287C1439.09 199.278 1439.1 199.271 1439.11 199.271C1439.12 199.271 1439.12 199.263 1439.12 199.253C1439.1 198.73 1439.09 198.204 1439.09 197.676C1439.09 177.42 1455.54 161 1475.83 161C1476.36 161 1476.89 161.011 1477.42 161.033C1477.42 161.034 1477.43 161.026 1477.43 161.017C1477.43 161.007 1477.44 161 1477.45 161H1608.42C1608.43 161 1608.44 161.008 1608.44 161.017C1608.44 161.027 1608.44 161.034 1608.45 161.035C1628 161.878 1643.58 177.96 1643.58 197.676C1643.58 198.204 1643.57 198.73 1643.55 199.253C1643.55 199.263 1643.56 199.271 1643.57 199.271C1643.58 199.271 1643.58 199.278 1643.58 199.287V352.294C1643.58 355.85 1640.7 358.732 1637.15 358.732H1611.68Z" fill="#232323"/>
<path fill-rule="evenodd" clip-rule="evenodd" d="M2010.85 215.217V247.05C2010.85 250.605 2013.73 253.487 2017.29 253.487H2132.22C2135.78 253.487 2138.66 250.605 2138.66 247.05V215.217C2138.66 202.887 2128.64 192.892 2116.29 192.892H2033.22C2020.86 192.892 2010.85 202.887 2010.85 215.217ZM2145.1 358.732C2141.54 358.732 2138.66 355.85 2138.66 352.294V288.628C2138.66 285.073 2135.78 282.19 2132.22 282.19H2017.29C2013.73 282.19 2010.85 285.073 2010.85 288.628V352.294C2010.85 355.85 2007.97 358.732 2004.41 358.732H1978.94C1975.39 358.732 1972.51 355.85 1972.51 352.294V199.287C1972.51 199.278 1972.51 199.271 1972.52 199.271C1972.53 199.271 1972.54 199.263 1972.54 199.253C1972.52 198.73 1972.51 198.204 1972.51 197.676C1972.51 177.42 1988.96 161 2009.25 161C2009.78 161 2010.31 161.011 2010.83 161.033C2010.84 161.034 2010.85 161.026 2010.85 161.017C2010.85 161.007 2010.86 161 2010.87 161H2141.84C2141.84 161 2141.85 161.008 2141.85 161.017C2141.85 161.027 2141.86 161.034 2141.87 161.035C2161.41 161.878 2177 177.96 2177 197.676C2177 198.204 2176.99 198.73 2176.97 199.253C2176.97 199.263 2176.97 199.271 2176.98 199.271C2176.99 199.271 2177 199.278 2177 199.287V352.294C2177 355.85 2174.12 358.732 2170.56 358.732H2145.1Z" fill="#232323"/>
<path fill-rule="evenodd" clip-rule="evenodd" d="M1746.07 163.26C1744.85 161.826 1743.05 161 1741.17 161H1712.24C1708.68 161 1705.8 163.882 1705.8 167.438V352.294C1705.8 355.85 1708.68 358.732 1712.24 358.732H1737.7C1741.26 358.732 1744.14 355.85 1744.14 352.294V229.188C1744.14 223.241 1751.52 220.474 1755.43 224.954L1871.89 358.333C1871.93 358.377 1871.95 358.433 1871.95 358.491C1871.95 358.624 1872.06 358.732 1872.19 358.732H1872.24H1903.85C1907.41 358.732 1910.29 355.85 1910.29 352.294V167.438C1910.29 163.882 1907.41 161 1903.85 161H1878.39C1874.83 161 1871.95 163.882 1871.95 167.438V293.399C1871.95 299.384 1864.5 302.13 1860.61 297.577L1746.07 163.26Z" fill="#232323"/>
<mask id="mask0" mask-type="alpha" maskUnits="userSpaceOnUse" x="172" y="101" width="385" height="311">
<path fill-rule="evenodd" clip-rule="evenodd" d="M501.095 174.619C498.789 176.955 495.661 178.267 492.4 178.267H184.321C173.433 178.267 167.917 164.989 175.529 157.102L226.063 104.748C228.377 102.351 231.546 101 234.855 101H544.082C555.038 101 560.524 114.417 552.778 122.264L501.095 174.619ZM501.095 408.443C498.789 410.72 495.661 412 492.4 412H184.321C173.433 412 167.917 399.054 175.529 391.364L226.063 340.319C228.377 337.982 231.546 336.665 234.855 336.665H544.082C555.038 336.665 560.524 349.746 552.778 357.397L501.095 408.443ZM492.4 218.832C495.661 218.832 498.789 220.112 501.095 222.389L552.778 273.435C560.524 281.086 555.038 294.168 544.082 294.168L234.855 294.168C231.546 294.168 228.377 292.85 226.063 290.513L175.529 239.468C167.917 231.779 173.433 218.832 184.321 218.832L492.4 218.832Z" fill="#00FFAD"/>
</mask>
<g mask="url(#mask0)">
<path d="M2.12207 73.776H664.211V542.03H2.12207V73.776Z" fill="url(#paint0_linear)"/>
</g>
<path d="M2397 227.68H2439.28C2447.03 227.68 2452.91 228.94 2456.92 231.46C2460.93 233.98 2463.59 237.387 2464.9 241.68C2466.21 245.973 2466.86 251.527 2466.86 258.34C2466.86 264.873 2466.21 270.333 2464.9 274.72C2463.59 279.013 2460.89 282.467 2456.78 285.08C2452.77 287.693 2446.84 289 2439 289H2409.04V324H2397V227.68ZM2434.94 277.8C2441.01 277.8 2445.44 277.193 2448.24 275.98C2451.04 274.673 2452.86 272.713 2453.7 270.1C2454.54 267.487 2454.96 263.567 2454.96 258.34C2454.96 253.113 2454.54 249.193 2453.7 246.58C2452.95 243.967 2451.18 242.053 2448.38 240.84C2445.67 239.533 2441.29 238.88 2435.22 238.88H2409.04V277.8H2434.94ZM2578.47 324L2563.49 286.2H2561.11H2530.87V324H2518.83V227.68H2563.07C2570.72 227.68 2576.51 228.893 2580.43 231.32C2584.35 233.747 2586.91 237.013 2588.13 241.12C2589.34 245.227 2589.95 250.5 2589.95 256.94C2589.95 263.567 2588.97 269.353 2587.01 274.3C2585.05 279.153 2581.03 282.467 2574.97 284.24L2591.35 324H2578.47ZM2558.03 275C2564 275 2568.39 274.393 2571.19 273.18C2574.08 271.873 2575.9 270.007 2576.65 267.58C2577.49 265.153 2577.91 261.607 2577.91 256.94C2577.91 252.18 2577.53 248.587 2576.79 246.16C2576.04 243.733 2574.31 241.913 2571.61 240.7C2568.99 239.487 2564.79 238.88 2559.01 238.88H2530.87V275H2558.03ZM2681.02 325.12C2668.23 325.12 2659.18 323.86 2653.86 321.34C2648.54 318.82 2645.13 314.433 2643.64 308.18C2642.24 301.833 2641.54 291.053 2641.54 275.84C2641.54 260.627 2642.24 249.893 2643.64 243.64C2645.13 237.293 2648.54 232.86 2653.86 230.34C2659.18 227.82 2668.23 226.56 2681.02 226.56C2693.71 226.56 2702.72 227.82 2708.04 230.34C2713.45 232.86 2716.86 237.293 2718.26 243.64C2719.75 249.893 2720.5 260.627 2720.5 275.84C2720.5 291.053 2719.75 301.833 2718.26 308.18C2716.86 314.433 2713.45 318.82 2708.04 321.34C2702.72 323.86 2693.71 325.12 2681.02 325.12ZM2681.02 313.92C2690.54 313.92 2696.98 313.313 2700.34 312.1C2703.7 310.887 2705.89 307.853 2706.92 303C2707.94 298.147 2708.46 289.093 2708.46 275.84C2708.46 262.587 2707.94 253.533 2706.92 248.68C2705.89 243.827 2703.7 240.793 2700.34 239.58C2696.98 238.367 2690.54 237.76 2681.02 237.76C2671.5 237.76 2665.01 238.367 2661.56 239.58C2658.2 240.793 2656 243.827 2654.98 248.68C2653.95 253.533 2653.44 262.587 2653.44 275.84C2653.44 289.093 2653.95 298.147 2654.98 303C2656 307.853 2658.2 310.887 2661.56 312.1C2665.01 313.313 2671.5 313.92 2681.02 313.92ZM2810.75 282.84V271.78H2844.07V322.32C2839.49 323.16 2834.31 323.813 2828.53 324.28C2822.83 324.84 2817.79 325.12 2813.41 325.12C2801.65 325.12 2792.92 323.86 2787.23 321.34C2781.63 318.727 2777.75 314.06 2775.61 307.34C2773.55 300.527 2772.53 290.027 2772.53 275.84C2772.53 261.747 2773.6 251.293 2775.75 244.48C2777.89 237.667 2781.77 233 2787.37 230.48C2793.06 227.867 2801.74 226.56 2813.41 226.56C2817.98 226.56 2823.07 226.84 2828.67 227.4C2834.36 227.96 2839.35 228.613 2843.65 229.36V240C2833.01 238.507 2824.89 237.76 2819.29 237.76C2808.18 237.76 2800.43 238.367 2796.05 239.58C2791.75 240.793 2788.72 243.967 2786.95 249.1C2785.27 254.233 2784.43 263.147 2784.43 275.84C2784.43 287.6 2785.08 296.047 2786.39 301.18C2787.69 306.313 2790.31 309.767 2794.23 311.54C2798.15 313.313 2804.59 314.2 2813.55 314.2C2816.35 314.2 2819.61 314.107 2823.35 313.92C2827.08 313.64 2830.11 313.36 2832.45 313.08V282.84H2810.75ZM2960.63 324L2945.65 286.2H2943.27H2913.03V324H2900.99V227.68H2945.23C2952.89 227.68 2958.67 228.893 2962.59 231.32C2966.51 233.747 2969.08 237.013 2970.29 241.12C2971.51 245.227 2972.11 250.5 2972.11 256.94C2972.11 263.567 2971.13 269.353 2969.17 274.3C2967.21 279.153 2963.2 282.467 2957.13 284.24L2973.51 324H2960.63ZM2940.19 275C2946.17 275 2950.55 274.393 2953.35 273.18C2956.25 271.873 2958.07 270.007 2958.81 267.58C2959.65 265.153 2960.07 261.607 2960.07 256.94C2960.07 252.18 2959.7 248.587 2958.95 246.16C2958.21 243.733 2956.48 241.913 2953.77 240.7C2951.16 239.487 2946.96 238.88 2941.17 238.88H2913.03V275H2940.19ZM3092.3 324L3082.36 298.38H3038.96L3029.02 324H3016.84L3053.24 227.68H3068.36L3104.76 324H3092.3ZM3060.94 240.7H3060.24L3042.6 287.04H3078.58L3060.94 240.7ZM3240.35 324V248.26H3239.79L3206.75 324H3197.93L3165.03 248.26H3164.47V324H3153.13V227.68H3169.37L3202.27 302.58H3202.97L3235.87 227.68H3252.11V324H3240.35ZM3374.09 324V227.68H3386.13V312.38H3431.07V324H3374.09ZM3479.92 324V227.68H3491.96V324H3479.92ZM3550.48 227.68H3595.28C3604.42 227.68 3610.96 229.733 3614.88 233.84C3618.89 237.947 3620.9 243.967 3620.9 251.9C3620.9 258.34 3619.59 263.473 3616.98 267.3C3614.36 271.033 3610.16 273.46 3604.38 274.58V275.14C3611 276.353 3615.58 278.92 3618.1 282.84C3620.62 286.76 3621.88 292.033 3621.88 298.66C3621.88 306.5 3619.92 312.707 3616 317.28C3612.17 321.76 3605.12 324 3594.86 324H3550.48V227.68ZM3591.36 269.68C3597.33 269.68 3601.72 268.42 3604.52 265.9C3607.41 263.38 3608.86 259.507 3608.86 254.28C3608.86 250.36 3608.34 247.327 3607.32 245.18C3606.29 243.033 3604.52 241.447 3602 240.42C3599.57 239.393 3596.02 238.88 3591.36 238.88H3562.52V269.68H3591.36ZM3591.92 312.8C3596.58 312.8 3600.18 312.287 3602.7 311.26C3605.31 310.233 3607.13 308.6 3608.16 306.36C3609.28 304.027 3609.84 300.853 3609.84 296.84C3609.84 291.053 3608.48 286.947 3605.78 284.52C3603.07 282.093 3598.45 280.88 3591.92 280.88H3562.52V312.8H3591.92ZM3736.05 324L3721.07 286.2H3718.69H3688.45V324H3676.41V227.68H3720.65C3728.3 227.68 3734.09 228.893 3738.01 231.32C3741.93 233.747 3744.49 237.013 3745.71 241.12C3746.92 245.227 3747.53 250.5 3747.53 256.94C3747.53 263.567 3746.55 269.353 3744.59 274.3C3742.63 279.153 3738.61 282.467 3732.55 284.24L3748.93 324H3736.05ZM3715.61 275C3721.58 275 3725.97 274.393 3728.77 273.18C3731.66 271.873 3733.48 270.007 3734.23 267.58C3735.07 265.153 3735.49 261.607 3735.49 256.94C3735.49 252.18 3735.11 248.587 3734.37 246.16C3733.62 243.733 3731.89 241.913 3729.19 240.7C3726.57 239.487 3722.37 238.88 3716.59 238.88H3688.45V275H3715.61ZM3867.72 324L3857.78 298.38H3814.38L3804.44 324H3792.26L3828.66 227.68H3843.78L3880.18 324H3867.72ZM3836.36 240.7H3835.66L3818.02 287.04H3854L3836.36 240.7ZM3988.18 324L3973.2 286.2H3970.82H3940.58V324H3928.54V227.68H3972.78C3980.43 227.68 3986.22 228.893 3990.14 231.32C3994.06 233.747 3996.63 237.013 3997.84 241.12C3999.05 245.227 3999.66 250.5 3999.66 256.94C3999.66 263.567 3998.68 269.353 3996.72 274.3C3994.76 279.153 3990.75 282.467 3984.68 284.24L4001.06 324H3988.18ZM3967.74 275C3973.71 275 3978.1 274.393 3980.9 273.18C3983.79 271.873 3985.61 270.007 3986.36 267.58C3987.2 265.153 3987.62 261.607 3987.62 256.94C3987.62 252.18 3987.25 248.587 3986.5 246.16C3985.75 243.733 3984.03 241.913 3981.32 240.7C3978.71 239.487 3974.51 238.88 3968.72 238.88H3940.58V275H3967.74ZM4074.68 324V287.6L4039.82 227.68H4052.7L4080.56 274.58H4081.54L4109.26 227.68H4121.86L4086.72 287.6V324H4074.68Z" fill="#767676"/>
</g>
<defs>
<linearGradient id="paint0_linear" x1="564.898" y1="86.9881" x2="344.296" y2="574.676" gradientUnits="userSpaceOnUse">
<stop stop-color="#02FFAD"/>
<stop offset="1" stop-color="#F71DF4"/>
</linearGradient>
<clipPath id="clip0">
<rect width="4476" height="513" fill="white"/>
</clipPath>
</defs>
</svg>
